<svg xmlns="http://www.w3.org/2000/svg" width="1920" height="1080"><path d="M29,1299L-169,1307L828,1306Z" fill="#3b97a1" stroke="#3b97a1" stroke-width="1.51"/><path d="M248,-209L376,-199L914,-200Z" fill="#76d3e3" stroke="#76d3e3" stroke-width="1.51"/><path d="M1286,1266L1084,1291L1413,1268Z" fill="#007f8a" stroke="#007f8a" stroke-width="1.51"/><path d="M248,-209L914,-200L1601,-226Z" fill="#70c9d7" stroke="#70c9d7" stroke-width="1.51"/><path d="M-235,-225L248,-209L1601,-226Z" fill="#76d3e3" stroke="#76d3e3" stroke-width="1.51"/><path d="M914,-200L1111,-178L1601,-226Z" fill="#6cc2cf" stroke="#6cc2cf" stroke-width="1.51"/><path d="M1413,1268L1084,1291L1694,1291Z" fill="#007c86" stroke="#007c86" stroke-width="1.51"/><path d="M931,1302L828,1306L1866,1312Z" fill="#007f8a" stroke="#007f8a" stroke-width="1.51"/><path d="M1694,1291L1084,1291L1866,1312Z" fill="#00767f" stroke="#00767f" stroke-width="1.51"/><path d="M1084,1291L931,1302L1866,1312Z" fill="#007d88" stroke="#007d88" stroke-width="1.51"/><path d="M-235,-225L1601,-226L1891,-228Z" fill="#70c7d3" stroke="#70c7d3" stroke-width="1.51"/><path d="M2083,652L2067,746L2097,904Z" fill="#007f89" stroke="#007f89" stroke-width="1.51"/><path d="M2097,904L2033,938L2119,1078Z" fill="#00747d" stroke="#00747d" stroke-width="1.51"/><path d="M2055,5L2044,165L2124,-88Z" fill="#429ba5" stroke="#429ba5" stroke-width="1.51"/><path d="M2083,652L2097,904L2141,442Z" fill="#00818c" stroke="#00818c" stroke-width="1.51"/><path d="M2055,521L2083,652L2141,442Z" fill="#008692" stroke="#008692" stroke-width="1.51"/><path d="M2141,442L2097,904L2145,1092Z" fill="#007c85" stroke="#007c85" stroke-width="1.51"/><path d="M2097,904L2119,1078L2145,1092Z" fill="#007178" stroke="#007178" stroke-width="1.51"/><path d="M2119,1078L1922,1188L2150,1282Z" fill="#006a70" stroke="#006a70" stroke-width="1.51"/><path d="M1922,1188L1960,1303L2150,1282Z" fill="#00686e" stroke="#00686e" stroke-width="1.51"/><path d="M2145,1092L2119,1078L2150,1282Z" fill="#00696f" stroke="#00696f" stroke-width="1.51"/><path d="M2016,475L2141,442L2159,337Z" fill="#018a97" stroke="#018a97" stroke-width="1.51"/><path d="M2033,263L2016,475L2159,337Z" fill="#018d9b" stroke="#018d9b" stroke-width="1.51"/><path d="M2044,165L2033,263L2159,337Z" fill="#0f909e" stroke="#0f909e" stroke-width="1.51"/><path d="M2124,-88L2044,165L2159,337Z" fill="#2f94a0" stroke="#2f94a0" stroke-width="1.51"/><path d="M2144,-140L2124,-88L2159,337Z" fill="#3f98a1" stroke="#3f98a1" stroke-width="1.51"/><path d="M2145,1092L2150,1282L2159,337Z" fill="#00767f" stroke="#00767f" stroke-width="1.51"/><path d="M2141,442L2145,1092L2159,337Z" fill="#00818c" stroke="#00818c" stroke-width="1.51"/><path d="M2039,-21L2055,5L2124,-88Z" fill="#4a9da6" stroke="#4a9da6" stroke-width="1.51"/><path d="M1997,-193L2124,-88L2144,-140Z" fill="#58a1a9" stroke="#58a1a9" stroke-width="1.51"/><path d="M2067,746L1977,830L2097,904Z" fill="#007d88" stroke="#007d88" stroke-width="1.51"/><path d="M2016,475L2055,521L2141,442Z" fill="#008996" stroke="#008996" stroke-width="1.51"/><path d="M1953,1053L1922,1188L2119,1078Z" fill="#007078" stroke="#007078" stroke-width="1.51"/><path d="M2033,938L1953,1053L2119,1078Z" fill="#00737c" stroke="#00737c" stroke-width="1.51"/><path d="M1997,-193L2039,-21L2124,-88Z" fill="#54a1a9" stroke="#54a1a9" stroke-width="1.51"/><path d="M1111,-178L1376,-167L1601,-226Z" fill="#68beca" stroke="#68beca" stroke-width="1.51"/><path d="M1909,284L2016,475L2033,263Z" fill="#00919f" stroke="#00919f" stroke-width="1.51"/><path d="M1954,111L1979,150L2044,165Z" fill="#2f98a5" stroke="#2f98a5" stroke-width="1.51"/><path d="M1954,111L2044,165L2055,5Z" fill="#389aa5" stroke="#389aa5" stroke-width="1.51"/><path d="M2015,697L2067,746L2083,652Z" fill="#00828d" stroke="#00828d" stroke-width="1.51"/><path d="M2055,521L2015,697L2083,652Z" fill="#008491" stroke="#008491" stroke-width="1.51"/><path d="M1977,830L2033,938L2097,904Z" fill="#007a84" stroke="#007a84" stroke-width="1.51"/><path d="M1897,642L2015,697L2055,521Z" fill="#008793" stroke="#008793" stroke-width="1.51"/><path d="M1997,-193L1901,-19L2039,-21Z" fill="#51a2ac" stroke="#51a2ac" stroke-width="1.51"/><path d="M1926,493L1897,642L2055,521Z" fill="#008a97" stroke="#008a97" stroke-width="1.51"/><path d="M2015,697L1977,830L2067,746Z" fill="#00818c" stroke="#00818c" stroke-width="1.51"/><path d="M1909,284L1926,493L2016,475Z" fill="#008f9d" stroke="#008f9d" stroke-width="1.51"/><path d="M1979,150L2033,263L2044,165Z" fill="#2495a2" stroke="#2495a2" stroke-width="1.51"/><path d="M2016,475L1926,493L2055,521Z" fill="#008b98" stroke="#008b98" stroke-width="1.51"/><path d="M2039,-21L1954,111L2055,5Z" fill="#429ca7" stroke="#429ca7" stroke-width="1.51"/><path d="M1901,-19L1954,111L2039,-21Z" fill="#449faa" stroke="#449faa" stroke-width="1.51"/><path d="M1979,150L1909,284L2033,263Z" fill="#1995a4" stroke="#1995a4" stroke-width="1.51"/><path d="M1891,1029L1953,1053L2033,938Z" fill="#007780" stroke="#007780" stroke-width="1.51"/><path d="M1977,830L1837,924L2033,938Z" fill="#007d87" stroke="#007d87" stroke-width="1.51"/><path d="M1837,924L1891,1029L2033,938Z" fill="#007a84" stroke="#007a84" stroke-width="1.51"/><path d="M1892,508L1897,642L1926,493Z" fill="#008c9a" stroke="#008c9a" stroke-width="1.51"/><path d="M1891,-228L1901,-19L1997,-193Z" fill="#5ba7b0" stroke="#5ba7b0" stroke-width="1.51"/><path d="M1852,776L1977,830L2015,697Z" fill="#00838f" stroke="#00838f" stroke-width="1.51"/><path d="M1897,642L1852,776L2015,697Z" fill="#008793" stroke="#008793" stroke-width="1.51"/><path d="M1909,284L1801,429L1926,493Z" fill="#0092a1" stroke="#0092a1" stroke-width="1.51"/><path d="M1901,-19L1844,27L1954,111Z" fill="#42a0ac" stroke="#42a0ac" stroke-width="1.51"/><path d="M1852,776L1837,924L1977,830Z" fill="#00828d" stroke="#00828d" stroke-width="1.51"/><path d="M1954,111L1816,154L1979,150Z" fill="#319ba9" stroke="#319ba9" stroke-width="1.51"/><path d="M1816,154L1909,284L1979,150Z" fill="#2499a8" stroke="#2499a8" stroke-width="1.51"/><path d="M1922,1188L1866,1312L1960,1303Z" fill="#006a71" stroke="#006a71" stroke-width="1.51"/><path d="M1891,1029L1856,1194L1922,1188Z" fill="#00727a" stroke="#00727a" stroke-width="1.51"/><path d="M1856,1194L1866,1312L1922,1188Z" fill="#006e75" stroke="#006e75" stroke-width="1.51"/><path d="M1891,1029L1922,1188L1953,1053Z" fill="#00747c" stroke="#00747c" stroke-width="1.51"/><path d="M1801,429L1892,508L1926,493Z" fill="#00909e" stroke="#00909e" stroke-width="1.51"/><path d="M1844,27L1816,154L1954,111Z" fill="#399eac" stroke="#399eac" stroke-width="1.51"/><path d="M1791,105L1816,154L1844,27Z" fill="#39a1ae" stroke="#39a1ae" stroke-width="1.51"/><path d="M1688,-148L1745,-17L1891,-228Z" fill="#5bacb7" stroke="#5bacb7" stroke-width="1.51"/><path d="M1781,696L1852,776L1897,642Z" fill="#008996" stroke="#008996" stroke-width="1.51"/><path d="M1891,-228L1745,-17L1901,-19Z" fill="#55a8b2" stroke="#55a8b2" stroke-width="1.51"/><path d="M1750,386L1801,429L1909,284Z" fill="#0096a5" stroke="#0096a5" stroke-width="1.51"/><path d="M1799,1192L1856,1194L1891,1029Z" fill="#00747c" stroke="#00747c" stroke-width="1.51"/><path d="M1892,508L1745,588L1897,642Z" fill="#008e9b" stroke="#008e9b" stroke-width="1.51"/><path d="M1716,1037L1799,1192L1891,1029Z" fill="#007881" stroke="#007881" stroke-width="1.51"/><path d="M1745,-17L1844,27L1901,-19Z" fill="#49a5b0" stroke="#49a5b0" stroke-width="1.51"/><path d="M1816,154L1711,241L1909,284Z" fill="#1c9baa" stroke="#1c9baa" stroke-width="1.51"/><path d="M1711,241L1750,386L1909,284Z" fill="#0099a9" stroke="#0099a9" stroke-width="1.51"/><path d="M1601,-226L1688,-148L1891,-228Z" fill="#65b1bb" stroke="#65b1bb" stroke-width="1.51"/><path d="M1745,588L1781,696L1897,642Z" fill="#008d9a" stroke="#008d9a" stroke-width="1.51"/><path d="M1856,1194L1799,1192L1866,1312Z" fill="#006f76" stroke="#006f76" stroke-width="1.51"/><path d="M1837,924L1716,1037L1891,1029Z" fill="#007c86" stroke="#007c86" stroke-width="1.51"/><path d="M1801,429L1745,588L1892,508Z" fill="#00919f" stroke="#00919f" stroke-width="1.51"/><path d="M1794,765L1837,924L1852,776Z" fill="#008591" stroke="#008591" stroke-width="1.51"/><path d="M1606,1257L1413,1268L1694,1291Z" fill="#00767f" stroke="#00767f" stroke-width="1.51"/><path d="M1794,765L1717,905L1837,924Z" fill="#008490" stroke="#008490" stroke-width="1.51"/><path d="M1781,696L1794,765L1852,776Z" fill="#008996" stroke="#008996" stroke-width="1.51"/><path d="M1799,1192L1694,1291L1866,1312Z" fill="#006f77" stroke="#006f77" stroke-width="1.51"/><path d="M265,1254L29,1299L828,1306Z" fill="#2b93a0" stroke="#2b93a0" stroke-width="1.51"/><path d="M1448,1257L1413,1268L1606,1257Z" fill="#007a83" stroke="#007a83" stroke-width="1.51"/><path d="M1758,144L1711,241L1816,154Z" fill="#299faf" stroke="#299faf" stroke-width="1.51"/><path d="M1717,905L1716,1037L1837,924Z" fill="#00808b" stroke="#00808b" stroke-width="1.51"/><path d="M1745,-17L1791,105L1844,27Z" fill="#43a4b1" stroke="#43a4b1" stroke-width="1.51"/><path d="M1716,1037L1636,1138L1799,1192Z" fill="#007982" stroke="#007982" stroke-width="1.51"/><path d="M1622,435L1745,588L1801,429Z" fill="#0095a5" stroke="#0095a5" stroke-width="1.51"/><path d="M1791,105L1758,144L1816,154Z" fill="#32a0ae" stroke="#32a0ae" stroke-width="1.51"/><path d="M1750,386L1622,435L1801,429Z" fill="#0097a7" stroke="#0097a7" stroke-width="1.51"/><path d="M1745,-17L1758,144L1791,105Z" fill="#3da4b1" stroke="#3da4b1" stroke-width="1.51"/><path d="M1636,1138L1694,1291L1799,1192Z" fill="#00757d" stroke="#00757d" stroke-width="1.51"/><path d="M1745,-17L1607,79L1758,144Z" fill="#40a6b4" stroke="#40a6b4" stroke-width="1.51"/><path d="M1569,735L1717,905L1794,765Z" fill="#008b98" stroke="#008b98" stroke-width="1.51"/><path d="M1781,696L1652,647L1794,765Z" fill="#008d9a" stroke="#008d9a" stroke-width="1.51"/><path d="M1652,647L1569,735L1794,765Z" fill="#008f9d" stroke="#008f9d" stroke-width="1.51"/><path d="M1745,588L1652,647L1781,696Z" fill="#008f9e" stroke="#008f9e" stroke-width="1.51"/><path d="M1569,735L1623,911L1717,905Z" fill="#008a97" stroke="#008a97" stroke-width="1.51"/><path d="M1622,435L1570,501L1745,588Z" fill="#0097a7" stroke="#0097a7" stroke-width="1.51"/><path d="M1711,241L1634,263L1750,386Z" fill="#009cae" stroke="#009cae" stroke-width="1.51"/><path d="M1620,232L1711,241L1758,144Z" fill="#23a0b0" stroke="#23a0b0" stroke-width="1.51"/><path d="M1607,79L1620,232L1758,144Z" fill="#30a4b3" stroke="#30a4b3" stroke-width="1.51"/><path d="M1636,1138L1606,1257L1694,1291Z" fill="#00767e" stroke="#00767e" stroke-width="1.51"/><path d="M1623,911L1716,1037L1717,905Z" fill="#00838f" stroke="#00838f" stroke-width="1.51"/><path d="M1688,-148L1564,-37L1745,-17Z" fill="#54adb9" stroke="#54adb9" stroke-width="1.51"/><path d="M1570,501L1652,647L1745,588Z" fill="#0094a4" stroke="#0094a4" stroke-width="1.51"/><path d="M1634,263L1622,435L1750,386Z" fill="#009bac" stroke="#009bac" stroke-width="1.51"/><path d="M1564,-37L1607,79L1745,-17Z" fill="#4aabb9" stroke="#4aabb9" stroke-width="1.51"/><path d="M1605,1057L1636,1138L1716,1037Z" fill="#007d88" stroke="#007d88" stroke-width="1.51"/><path d="M1623,911L1605,1057L1716,1037Z" fill="#00828d" stroke="#00828d" stroke-width="1.51"/><path d="M1620,232L1634,263L1711,241Z" fill="#15a0b1" stroke="#15a0b1" stroke-width="1.51"/><path d="M1376,-167L1441,-164L1601,-226Z" fill="#66bac5" stroke="#66bac5" stroke-width="1.51"/><path d="M1601,-226L1564,-37L1688,-148Z" fill="#5eb3bd" stroke="#5eb3bd" stroke-width="1.51"/><path d="M1607,79L1511,96L1620,232Z" fill="#34a7b7" stroke="#34a7b7" stroke-width="1.51"/><path d="M1467,294L1454,392L1622,435Z" fill="#00a0b3" stroke="#00a0b3" stroke-width="1.51"/><path d="M1551,945L1605,1057L1623,911Z" fill="#008591" stroke="#008591" stroke-width="1.51"/><path d="M1467,294L1622,435L1634,263Z" fill="#00a0b2" stroke="#00a0b2" stroke-width="1.51"/><path d="M1541,1164L1606,1257L1636,1138Z" fill="#007a84" stroke="#007a84" stroke-width="1.51"/><path d="M1570,501L1507,664L1652,647Z" fill="#0096a6" stroke="#0096a6" stroke-width="1.51"/><path d="M1507,664L1569,735L1652,647Z" fill="#0093a2" stroke="#0093a2" stroke-width="1.51"/><path d="M1469,743L1551,945L1569,735Z" fill="#00909f" stroke="#00909f" stroke-width="1.51"/><path d="M1441,-164L1564,-37L1601,-226Z" fill="#60b6c1" stroke="#60b6c1" stroke-width="1.51"/><path d="M1569,735L1551,945L1623,911Z" fill="#008b99" stroke="#008b99" stroke-width="1.51"/><path d="M1620,232L1467,294L1634,263Z" fill="#0ca3b4" stroke="#0ca3b4" stroke-width="1.51"/><path d="M1605,1057L1541,1164L1636,1138Z" fill="#007d88" stroke="#007d88" stroke-width="1.51"/><path d="M1487,515L1507,664L1570,501Z" fill="#009aaa" stroke="#009aaa" stroke-width="1.51"/><path d="M1511,96L1443,191L1620,232Z" fill="#2da8b9" stroke="#2da8b9" stroke-width="1.51"/><path d="M1454,392L1570,501L1622,435Z" fill="#009dae" stroke="#009dae" stroke-width="1.51"/><path d="M1564,-37L1511,96L1607,79Z" fill="#45acbb" stroke="#45acbb" stroke-width="1.51"/><path d="M1443,191L1467,294L1620,232Z" fill="#19a6b8" stroke="#19a6b8" stroke-width="1.51"/><path d="M1551,945L1490,966L1605,1057Z" fill="#008692" stroke="#008692" stroke-width="1.51"/><path d="M1541,1164L1448,1257L1606,1257Z" fill="#007a84" stroke="#007a84" stroke-width="1.51"/><path d="M1435,1032L1541,1164L1605,1057Z" fill="#00818d" stroke="#00818d" stroke-width="1.51"/><path d="M1490,966L1435,1032L1605,1057Z" fill="#008592" stroke="#008592" stroke-width="1.51"/><path d="M1476,-22L1511,96L1564,-37Z" fill="#4bafbd" stroke="#4bafbd" stroke-width="1.51"/><path d="M1469,743L1490,966L1551,945Z" fill="#008d9b" stroke="#008d9b" stroke-width="1.51"/><path d="M1441,-164L1476,-22L1564,-37Z" fill="#58b4c1" stroke="#58b4c1" stroke-width="1.51"/><path d="M1507,664L1469,743L1569,735Z" fill="#0094a4" stroke="#0094a4" stroke-width="1.51"/><path d="M1454,392L1487,515L1570,501Z" fill="#009daf" stroke="#009daf" stroke-width="1.51"/><path d="M1469,743L1334,894L1490,966Z" fill="#00919f" stroke="#00919f" stroke-width="1.51"/><path d="M1487,515L1400,564L1507,664Z" fill="#009bac" stroke="#009bac" stroke-width="1.51"/><path d="M1354,1191L1448,1257L1541,1164Z" fill="#007e88" stroke="#007e88" stroke-width="1.51"/><path d="M1435,1032L1354,1191L1541,1164Z" fill="#00828e" stroke="#00828e" stroke-width="1.51"/><path d="M1322,775L1334,894L1469,743Z" fill="#0096a6" stroke="#0096a6" stroke-width="1.51"/><path d="M1454,392L1425,404L1487,515Z" fill="#00a0b2" stroke="#00a0b2" stroke-width="1.51"/><path d="M1476,-22L1357,100L1511,96Z" fill="#44b0bf" stroke="#44b0bf" stroke-width="1.51"/><path d="M1357,100L1443,191L1511,96Z" fill="#37aebe" stroke="#37aebe" stroke-width="1.51"/><path d="M1349,661L1469,743L1507,664Z" fill="#0098a8" stroke="#0098a8" stroke-width="1.51"/><path d="M1400,564L1349,661L1507,664Z" fill="#009bac" stroke="#009bac" stroke-width="1.51"/><path d="M1441,-164L1345,-83L1476,-22Z" fill="#5bb7c5" stroke="#5bb7c5" stroke-width="1.51"/><path d="M1425,404L1400,564L1487,515Z" fill="#009fb0" stroke="#009fb0" stroke-width="1.51"/><path d="M1334,894L1435,1032L1490,966Z" fill="#008c99" stroke="#008c99" stroke-width="1.51"/><path d="M376,-199L655,-155L914,-200Z" fill="#6fcfdf" stroke="#6fcfdf" stroke-width="1.51"/><path d="M1425,404L1454,392L1467,294Z" fill="#00a3b6" stroke="#00a3b6" stroke-width="1.51"/><path d="M1443,191L1362,228L1467,294Z" fill="#1aa9bb" stroke="#1aa9bb" stroke-width="1.51"/><path d="M1345,-83L1357,100L1476,-22Z" fill="#4eb5c4" stroke="#4eb5c4" stroke-width="1.51"/><path d="M1376,-167L1345,-83L1441,-164Z" fill="#62bbc8" stroke="#62bbc8" stroke-width="1.51"/><path d="M1354,1191L1413,1268L1448,1257Z" fill="#007e88" stroke="#007e88" stroke-width="1.51"/><path d="M1335,259L1425,404L1467,294Z" fill="#00a6ba" stroke="#00a6ba" stroke-width="1.51"/><path d="M1349,661L1322,775L1469,743Z" fill="#0099a9" stroke="#0099a9" stroke-width="1.51"/><path d="M1362,228L1335,259L1467,294Z" fill="#0fa9bd" stroke="#0fa9bd" stroke-width="1.51"/><path d="M1256,475L1400,564L1425,404Z" fill="#00a2b4" stroke="#00a2b4" stroke-width="1.51"/><path d="M1266,1134L1354,1191L1435,1032Z" fill="#008692" stroke="#008692" stroke-width="1.51"/><path d="M1256,475L1313,568L1400,564Z" fill="#00a1b3" stroke="#00a1b3" stroke-width="1.51"/><path d="M1357,100L1362,228L1443,191Z" fill="#2eadbf" stroke="#2eadbf" stroke-width="1.51"/><path d="M1111,-178L1315,-131L1376,-167Z" fill="#66bfcc" stroke="#66bfcc" stroke-width="1.51"/><path d="M1334,894L1203,968L1435,1032Z" fill="#008f9d" stroke="#008f9d" stroke-width="1.51"/><path d="M1203,968L1266,1134L1435,1032Z" fill="#008b98" stroke="#008b98" stroke-width="1.51"/><path d="M914,-200L1036,-174L1111,-178Z" fill="#6bc6d4" stroke="#6bc6d4" stroke-width="1.51"/><path d="M1345,-83L1259,48L1357,100Z" fill="#4bb6c6" stroke="#4bb6c6" stroke-width="1.51"/><path d="M1335,259L1256,475L1425,404Z" fill="#00a6b9" stroke="#00a6b9" stroke-width="1.51"/><path d="M1313,568L1349,661L1400,564Z" fill="#009eaf" stroke="#009eaf" stroke-width="1.51"/><path d="M1354,1191L1286,1266L1413,1268Z" fill="#007f8a" stroke="#007f8a" stroke-width="1.51"/><path d="M1177,322L1256,475L1335,259Z" fill="#00a9bd" stroke="#00a9bd" stroke-width="1.51"/><path d="M1357,100L1291,122L1362,228Z" fill="#33b0c1" stroke="#33b0c1" stroke-width="1.51"/><path d="M1315,-131L1345,-83L1376,-167Z" fill="#61bcc9" stroke="#61bcc9" stroke-width="1.51"/><path d="M1217,-45L1259,48L1345,-83Z" fill="#53b9c9" stroke="#53b9c9" stroke-width="1.51"/><path d="M1259,48L1291,122L1357,100Z" fill="#40b3c4" stroke="#40b3c4" stroke-width="1.51"/><path d="M1291,122L1335,259L1362,228Z" fill="#26adc0" stroke="#26adc0" stroke-width="1.51"/><path d="M1322,775L1243,784L1334,894Z" fill="#0097a7" stroke="#0097a7" stroke-width="1.51"/><path d="M1210,250L1177,322L1335,259Z" fill="#03acc1" stroke="#03acc1" stroke-width="1.51"/><path d="M1291,122L1210,250L1335,259Z" fill="#24aec1" stroke="#24aec1" stroke-width="1.51"/><path d="M1243,784L1322,775L1349,661Z" fill="#009aab" stroke="#009aab" stroke-width="1.51"/><path d="M1227,619L1243,784L1349,661Z" fill="#009dae" stroke="#009dae" stroke-width="1.51"/><path d="M1313,568L1227,619L1349,661Z" fill="#009fb1" stroke="#009fb1" stroke-width="1.51"/><path d="M1266,1134L1286,1266L1354,1191Z" fill="#00838e" stroke="#00838e" stroke-width="1.51"/><path d="M1213,899L1203,968L1334,894Z" fill="#0093a2" stroke="#0093a2" stroke-width="1.51"/><path d="M1243,784L1213,899L1334,894Z" fill="#0096a5" stroke="#0096a5" stroke-width="1.51"/><path d="M1315,-131L1217,-45L1345,-83Z" fill="#5bbbca" stroke="#5bbbca" stroke-width="1.51"/><path d="M1227,619L1166,691L1243,784Z" fill="#009eaf" stroke="#009eaf" stroke-width="1.51"/><path d="M1256,475L1227,619L1313,568Z" fill="#00a1b4" stroke="#00a1b4" stroke-width="1.51"/><path d="M1111,-178L1217,-45L1315,-131Z" fill="#61bfcd" stroke="#61bfcd" stroke-width="1.51"/><path d="M1203,968L1139,1028L1266,1134Z" fill="#008d9b" stroke="#008d9b" stroke-width="1.51"/><path d="M1177,322L1158,450L1256,475Z" fill="#00a8bc" stroke="#00a8bc" stroke-width="1.51"/><path d="M1156,512L1227,619L1256,475Z" fill="#00a4b6" stroke="#00a4b6" stroke-width="1.51"/><path d="M1092,1130L1084,1291L1266,1134Z" fill="#008793" stroke="#008793" stroke-width="1.51"/><path d="M1266,1134L1084,1291L1286,1266Z" fill="#00838e" stroke="#00838e" stroke-width="1.51"/><path d="M1259,48L1181,80L1291,122Z" fill="#41b5c6" stroke="#41b5c6" stroke-width="1.51"/><path d="M1181,80L1210,250L1291,122Z" fill="#34b2c4" stroke="#34b2c4" stroke-width="1.51"/><path d="M1181,80L1113,142L1210,250Z" fill="#33b3c6" stroke="#33b3c6" stroke-width="1.51"/><path d="M1166,691L1148,744L1243,784Z" fill="#009dae" stroke="#009dae" stroke-width="1.51"/><path d="M1217,-45L1181,80L1259,48Z" fill="#4bb8c9" stroke="#4bb8c9" stroke-width="1.51"/><path d="M1139,1028L1092,1130L1266,1134Z" fill="#008b99" stroke="#008b99" stroke-width="1.51"/><path d="M1158,450L1156,512L1256,475Z" fill="#00a6b9" stroke="#00a6b9" stroke-width="1.51"/><path d="M1148,744L1077,862L1213,899Z" fill="#009aaa" stroke="#009aaa" stroke-width="1.51"/><path d="M1190,959L1203,968L1213,899Z" fill="#0093a2" stroke="#0093a2" stroke-width="1.51"/><path d="M1111,-178L1083,-80L1217,-45Z" fill="#5fbfce" stroke="#5fbfce" stroke-width="1.51"/><path d="M1148,744L1213,899L1243,784Z" fill="#009aab" stroke="#009aab" stroke-width="1.51"/><path d="M518,1223L265,1254L828,1306Z" fill="#0a909e" stroke="#0a909e" stroke-width="1.51"/><path d="M1083,-80L1181,80L1217,-45Z" fill="#52bbcb" stroke="#52bbcb" stroke-width="1.51"/><path d="M1156,512L1166,691L1227,619Z" fill="#00a2b4" stroke="#00a2b4" stroke-width="1.51"/><path d="M1061,1272L1084,1291L1092,1130Z" fill="#008692" stroke="#008692" stroke-width="1.51"/><path d="M1083,-80L1040,62L1181,80Z" fill="#4dbbcc" stroke="#4dbbcc" stroke-width="1.51"/><path d="M1190,959L1139,1028L1203,968Z" fill="#00919f" stroke="#00919f" stroke-width="1.51"/><path d="M1113,142L1056,276L1210,250Z" fill="#21b1c5" stroke="#21b1c5" stroke-width="1.51"/><path d="M1077,862L1190,959L1213,899Z" fill="#0095a5" stroke="#0095a5" stroke-width="1.51"/><path d="M1056,276L1177,322L1210,250Z" fill="#00aec3" stroke="#00aec3" stroke-width="1.51"/><path d="M1156,512L986,630L1166,691Z" fill="#00a3b6" stroke="#00a3b6" stroke-width="1.51"/><path d="M1075,416L1158,450L1177,322Z" fill="#00aabe" stroke="#00aabe" stroke-width="1.51"/><path d="M1047,492L986,630L1156,512Z" fill="#00a7ba" stroke="#00a7ba" stroke-width="1.51"/><path d="M1077,862L1139,1028L1190,959Z" fill="#0094a3" stroke="#0094a3" stroke-width="1.51"/><path d="M1040,62L1113,142L1181,80Z" fill="#40b7ca" stroke="#40b7ca" stroke-width="1.51"/><path d="M1027,-44L1040,62L1083,-80Z" fill="#54bece" stroke="#54bece" stroke-width="1.51"/><path d="M1056,276L1075,416L1177,322Z" fill="#00adc2" stroke="#00adc2" stroke-width="1.51"/><path d="M986,630L1148,744L1166,691Z" fill="#00a1b2" stroke="#00a1b2" stroke-width="1.51"/><path d="M1077,862L990,1036L1139,1028Z" fill="#0094a3" stroke="#0094a3" stroke-width="1.51"/><path d="M1007,775L1077,862L1148,744Z" fill="#009daf" stroke="#009daf" stroke-width="1.51"/><path d="M986,630L1007,775L1148,744Z" fill="#00a1b3" stroke="#00a1b3" stroke-width="1.51"/><path d="M1047,492L1156,512L1158,450Z" fill="#00a7bb" stroke="#00a7bb" stroke-width="1.51"/><path d="M1075,416L1047,492L1158,450Z" fill="#00a9bd" stroke="#00a9bd" stroke-width="1.51"/><path d="M1028,151L1056,276L1113,142Z" fill="#2bb4c8" stroke="#2bb4c8" stroke-width="1.51"/><path d="M990,1036L1092,1130L1139,1028Z" fill="#008f9d" stroke="#008f9d" stroke-width="1.51"/><path d="M983,1182L1061,1272L1092,1130Z" fill="#008895" stroke="#008895" stroke-width="1.51"/><path d="M1036,-174L1083,-80L1111,-178Z" fill="#65c3d1" stroke="#65c3d1" stroke-width="1.51"/><path d="M1040,62L1028,151L1113,142Z" fill="#3cb8ca" stroke="#3cb8ca" stroke-width="1.51"/><path d="M1056,276L931,387L1075,416Z" fill="#00aec3" stroke="#00aec3" stroke-width="1.51"/><path d="M892,861L990,1036L1077,862Z" fill="#0099a9" stroke="#0099a9" stroke-width="1.51"/><path d="M1061,1272L931,1302L1084,1291Z" fill="#008490" stroke="#008490" stroke-width="1.51"/><path d="M990,1036L983,1182L1092,1130Z" fill="#008d9b" stroke="#008d9b" stroke-width="1.51"/><path d="M1036,-174L1027,-44L1083,-80Z" fill="#5fc1d1" stroke="#5fc1d1" stroke-width="1.51"/><path d="M1028,151L941,179L1056,276Z" fill="#28b5c9" stroke="#28b5c9" stroke-width="1.51"/><path d="M1007,775L892,861L1077,862Z" fill="#009daf" stroke="#009daf" stroke-width="1.51"/><path d="M931,387L1047,492L1075,416Z" fill="#00acc0" stroke="#00acc0" stroke-width="1.51"/><path d="M986,630L919,686L1007,775Z" fill="#00a3b6" stroke="#00a3b6" stroke-width="1.51"/><path d="M1027,-44L958,31L1040,62Z" fill="#4fbdcf" stroke="#4fbdcf" stroke-width="1.51"/><path d="M913,542L986,630L1047,492Z" fill="#00a8bc" stroke="#00a8bc" stroke-width="1.51"/><path d="M941,179L922,260L1056,276Z" fill="#1bb4c9" stroke="#1bb4c9" stroke-width="1.51"/><path d="M922,260L931,387L1056,276Z" fill="#00b1c7" stroke="#00b1c7" stroke-width="1.51"/><path d="M983,1182L931,1302L1061,1272Z" fill="#008793" stroke="#008793" stroke-width="1.51"/><path d="M889,-73L1027,-44L1036,-174Z" fill="#60c3d3" stroke="#60c3d3" stroke-width="1.51"/><path d="M892,861L920,1039L990,1036Z" fill="#0097a7" stroke="#0097a7" stroke-width="1.51"/><path d="M914,-200L889,-73L1036,-174Z" fill="#67c6d5" stroke="#67c6d5" stroke-width="1.51"/><path d="M958,31L1028,151L1040,62Z" fill="#43bacd" stroke="#43bacd" stroke-width="1.51"/><path d="M931,387L913,542L1047,492Z" fill="#00abc0" stroke="#00abc0" stroke-width="1.51"/><path d="M958,31L941,179L1028,151Z" fill="#3cb9cc" stroke="#3cb9cc" stroke-width="1.51"/><path d="M655,-155L791,-148L914,-200Z" fill="#6bcada" stroke="#6bcada" stroke-width="1.51"/><path d="M920,1039L983,1182L990,1036Z" fill="#00909e" stroke="#00909e" stroke-width="1.51"/><path d="M920,1039L879,1097L983,1182Z" fill="#00909e" stroke="#00909e" stroke-width="1.51"/><path d="M889,-73L958,31L1027,-44Z" fill="#56c0d1" stroke="#56c0d1" stroke-width="1.51"/><path d="M919,686L842,775L1007,775Z" fill="#00a3b5" stroke="#00a3b5" stroke-width="1.51"/><path d="M842,775L892,861L1007,775Z" fill="#00a1b3" stroke="#00a1b3" stroke-width="1.51"/><path d="M913,542L919,686L986,630Z" fill="#00a7ba" stroke="#00a7ba" stroke-width="1.51"/><path d="M879,1097L828,1306L931,1302Z" fill="#008a97" stroke="#008a97" stroke-width="1.51"/><path d="M830,21L941,179L958,31Z" fill="#44bdd0" stroke="#44bdd0" stroke-width="1.51"/><path d="M879,1097L931,1302L983,1182Z" fill="#008b99" stroke="#008b99" stroke-width="1.51"/><path d="M834,741L842,775L919,686Z" fill="#00a5b8" stroke="#00a5b8" stroke-width="1.51"/><path d="M892,861L790,939L920,1039Z" fill="#009aab" stroke="#009aab" stroke-width="1.51"/><path d="M835,543L913,542L931,387Z" fill="#00acc1" stroke="#00acc1" stroke-width="1.51"/><path d="M830,21L835,216L941,179Z" fill="#39bbcf" stroke="#39bbcf" stroke-width="1.51"/><path d="M889,-73L830,21L958,31Z" fill="#53c1d3" stroke="#53c1d3" stroke-width="1.51"/><path d="M836,716L834,741L919,686Z" fill="#00a5b8" stroke="#00a5b8" stroke-width="1.51"/><path d="M913,542L835,543L919,686Z" fill="#00a9bd" stroke="#00a9bd" stroke-width="1.51"/><path d="M922,260L800,273L931,387Z" fill="#00b3ca" stroke="#00b3ca" stroke-width="1.51"/><path d="M835,216L922,260L941,179Z" fill="#23b7cc" stroke="#23b7cc" stroke-width="1.51"/><path d="M721,1171L828,1306L879,1097Z" fill="#008e9c" stroke="#008e9c" stroke-width="1.51"/><path d="M791,-148L889,-73L914,-200Z" fill="#67c8d7" stroke="#67c8d7" stroke-width="1.51"/><path d="M835,543L836,716L919,686Z" fill="#00a8bb" stroke="#00a8bb" stroke-width="1.51"/><path d="M728,391L835,543L931,387Z" fill="#00afc5" stroke="#00afc5" stroke-width="1.51"/><path d="M800,273L728,391L931,387Z" fill="#00b3c9" stroke="#00b3c9" stroke-width="1.51"/><path d="M790,939L762,971L920,1039Z" fill="#0099aa" stroke="#0099aa" stroke-width="1.51"/><path d="M835,216L800,273L922,260Z" fill="#16b6cc" stroke="#16b6cc" stroke-width="1.51"/><path d="M762,971L879,1097L920,1039Z" fill="#0096a5" stroke="#0096a5" stroke-width="1.51"/><path d="M668,1218L518,1223L828,1306Z" fill="#008e9c" stroke="#008e9c" stroke-width="1.51"/><path d="M830,21L685,104L835,216Z" fill="#3fbed2" stroke="#3fbed2" stroke-width="1.51"/><path d="M842,775L790,939L892,861Z" fill="#00a0b1" stroke="#00a0b1" stroke-width="1.51"/><path d="M740,-116L830,21L889,-73Z" fill="#5bc5d6" stroke="#5bc5d6" stroke-width="1.51"/><path d="M791,-148L740,-116L889,-73Z" fill="#63c7d8" stroke="#63c7d8" stroke-width="1.51"/><path d="M762,971L692,1047L879,1097Z" fill="#0097a7" stroke="#0097a7" stroke-width="1.51"/><path d="M692,1047L721,1171L879,1097Z" fill="#0093a3" stroke="#0093a3" stroke-width="1.51"/><path d="M740,-116L708,-9L830,21Z" fill="#58c5d7" stroke="#58c5d7" stroke-width="1.51"/><path d="M728,391L627,517L835,543Z" fill="#00b0c6" stroke="#00b0c6" stroke-width="1.51"/><path d="M627,517L654,683L835,543Z" fill="#00adc3" stroke="#00adc3" stroke-width="1.51"/><path d="M685,104L652,159L835,216Z" fill="#35bdd3" stroke="#35bdd3" stroke-width="1.51"/><path d="M652,159L685,254L835,216Z" fill="#27bbd1" stroke="#27bbd1" stroke-width="1.51"/><path d="M835,543L654,683L836,716Z" fill="#00aabe" stroke="#00aabe" stroke-width="1.51"/><path d="M834,741L672,827L842,775Z" fill="#00a5b8" stroke="#00a5b8" stroke-width="1.51"/><path d="M672,827L790,939L842,775Z" fill="#00a2b4" stroke="#00a2b4" stroke-width="1.51"/><path d="M721,1171L668,1218L828,1306Z" fill="#008e9b" stroke="#008e9b" stroke-width="1.51"/><path d="M708,-9L685,104L830,21Z" fill="#4dc2d6" stroke="#4dc2d6" stroke-width="1.51"/><path d="M654,683L834,741L836,716Z" fill="#00a7bb" stroke="#00a7bb" stroke-width="1.51"/><path d="M685,254L800,273L835,216Z" fill="#18b8cf" stroke="#18b8cf" stroke-width="1.51"/><path d="M654,683L672,827L834,741Z" fill="#00a7bb" stroke="#00a7bb" stroke-width="1.51"/><path d="M692,1047L689,1156L721,1171Z" fill="#0094a3" stroke="#0094a3" stroke-width="1.51"/><path d="M672,827L650,924L790,939Z" fill="#00a0b3" stroke="#00a0b3" stroke-width="1.51"/><path d="M655,-155L740,-116L791,-148Z" fill="#68cbdb" stroke="#68cbdb" stroke-width="1.51"/><path d="M685,254L728,391L800,273Z" fill="#00b7ce" stroke="#00b7ce" stroke-width="1.51"/><path d="M376,-199L592,-135L655,-155Z" fill="#6ed0e1" stroke="#6ed0e1" stroke-width="1.51"/><path d="M650,924L762,971L790,939Z" fill="#009daf" stroke="#009daf" stroke-width="1.51"/><path d="M650,924L692,1047L762,971Z" fill="#009cad" stroke="#009cad" stroke-width="1.51"/><path d="M685,254L628,394L728,391Z" fill="#00b6cd" stroke="#00b6cd" stroke-width="1.51"/><path d="M628,394L627,517L728,391Z" fill="#00b4ca" stroke="#00b4ca" stroke-width="1.51"/><path d="M655,-155L708,-9L740,-116Z" fill="#62c9db" stroke="#62c9db" stroke-width="1.51"/><path d="M655,-155L592,-135L708,-9Z" fill="#63cbdc" stroke="#63cbdc" stroke-width="1.51"/><path d="M592,-135L565,-113L708,-9Z" fill="#61cbdc" stroke="#61cbdc" stroke-width="1.51"/><path d="M689,1156L668,1218L721,1171Z" fill="#00919f" stroke="#00919f" stroke-width="1.51"/><path d="M627,517L567,553L654,683Z" fill="#00afc5" stroke="#00afc5" stroke-width="1.51"/><path d="M654,683L584,711L672,827Z" fill="#00a9be" stroke="#00a9be" stroke-width="1.51"/><path d="M565,1177L689,1156L692,1047Z" fill="#0095a5" stroke="#0095a5" stroke-width="1.51"/><path d="M521,96L685,104L708,-9Z" fill="#49c3d8" stroke="#49c3d8" stroke-width="1.51"/><path d="M565,-113L521,96L708,-9Z" fill="#56c8db" stroke="#56c8db" stroke-width="1.51"/><path d="M588,913L512,1036L650,924Z" fill="#00a0b2" stroke="#00a0b2" stroke-width="1.51"/><path d="M552,378L628,394L685,254Z" fill="#00b8cf" stroke="#00b8cf" stroke-width="1.51"/><path d="M650,924L512,1036L692,1047Z" fill="#009dae" stroke="#009dae" stroke-width="1.51"/><path d="M512,1036L565,1177L692,1047Z" fill="#0099a9" stroke="#0099a9" stroke-width="1.51"/><path d="M565,1177L668,1218L689,1156Z" fill="#0092a1" stroke="#0092a1" stroke-width="1.51"/><path d="M588,913L650,924L672,827Z" fill="#00a2b5" stroke="#00a2b5" stroke-width="1.51"/><path d="M652,159L499,224L685,254Z" fill="#26bed4" stroke="#26bed4" stroke-width="1.51"/><path d="M499,224L552,378L685,254Z" fill="#00bbd3" stroke="#00bbd3" stroke-width="1.51"/><path d="M521,96L652,159L685,104Z" fill="#3ec1d7" stroke="#3ec1d7" stroke-width="1.51"/><path d="M567,553L584,711L654,683Z" fill="#00aec3" stroke="#00aec3" stroke-width="1.51"/><path d="M565,1177L518,1223L668,1218Z" fill="#0093a1" stroke="#0093a1" stroke-width="1.51"/><path d="M528,781L588,913L672,827Z" fill="#00a6ba" stroke="#00a6ba" stroke-width="1.51"/><path d="M584,711L528,781L672,827Z" fill="#00a9bd" stroke="#00a9bd" stroke-width="1.51"/><path d="M423,1201L265,1254L518,1223Z" fill="#2796a3" stroke="#2796a3" stroke-width="1.51"/><path d="M552,378L627,517L628,394Z" fill="#00b5cc" stroke="#00b5cc" stroke-width="1.51"/><path d="M521,96L499,224L652,159Z" fill="#36c1d7" stroke="#36c1d7" stroke-width="1.51"/><path d="M499,224L488,342L552,378Z" fill="#17bcd3" stroke="#17bcd3" stroke-width="1.51"/><path d="M474,85L521,96L565,-113Z" fill="#55c8dc" stroke="#55c8dc" stroke-width="1.51"/><path d="M552,378L567,553L627,517Z" fill="#00b4ca" stroke="#00b4ca" stroke-width="1.51"/><path d="M409,-22L474,85L565,-113Z" fill="#5fccde" stroke="#5fccde" stroke-width="1.51"/><path d="M512,1036L469,1061L565,1177Z" fill="#129bab" stroke="#129bab" stroke-width="1.51"/><path d="M552,378L406,370L567,553Z" fill="#18b8ce" stroke="#18b8ce" stroke-width="1.51"/><path d="M567,553L405,603L584,711Z" fill="#14b0c6" stroke="#14b0c6" stroke-width="1.51"/><path d="M405,603L479,743L584,711Z" fill="#1cafc4" stroke="#1cafc4" stroke-width="1.51"/><path d="M528,781L417,846L588,913Z" fill="#15a8bb" stroke="#15a8bb" stroke-width="1.51"/><path d="M376,-199L565,-113L592,-135Z" fill="#6fd1e1" stroke="#6fd1e1" stroke-width="1.51"/><path d="M406,370L377,575L567,553Z" fill="#27b7cc" stroke="#27b7cc" stroke-width="1.51"/><path d="M417,846L512,1036L588,913Z" fill="#16a4b5" stroke="#16a4b5" stroke-width="1.51"/><path d="M479,743L528,781L584,711Z" fill="#0facc0" stroke="#0facc0" stroke-width="1.51"/><path d="M333,491L377,575L406,370Z" fill="#35bacf" stroke="#35bacf" stroke-width="1.51"/><path d="M469,1061L423,1201L518,1223Z" fill="#1d98a6" stroke="#1d98a6" stroke-width="1.51"/><path d="M488,342L406,370L552,378Z" fill="#20bbd2" stroke="#20bbd2" stroke-width="1.51"/><path d="M469,1061L518,1223L565,1177Z" fill="#1197a6" stroke="#1197a6" stroke-width="1.51"/><path d="M377,575L405,603L567,553Z" fill="#26b4c9" stroke="#26b4c9" stroke-width="1.51"/><path d="M376,-199L409,-22L565,-113Z" fill="#6fd0e1" stroke="#6fd0e1" stroke-width="1.51"/><path d="M474,85L499,224L521,96Z" fill="#44c4d9" stroke="#44c4d9" stroke-width="1.51"/><path d="M392,1100L423,1201L469,1061Z" fill="#259caa" stroke="#259caa" stroke-width="1.51"/><path d="M474,85L433,211L499,224Z" fill="#40c3d8" stroke="#40c3d8" stroke-width="1.51"/><path d="M417,846L469,1061L512,1036Z" fill="#1fa1b3" stroke="#1fa1b3" stroke-width="1.51"/><path d="M479,743L417,846L528,781Z" fill="#1facbf" stroke="#1facbf" stroke-width="1.51"/><path d="M433,211L488,342L499,224Z" fill="#29bfd6" stroke="#29bfd6" stroke-width="1.51"/><path d="M417,846L301,903L469,1061Z" fill="#2ca6b7" stroke="#2ca6b7" stroke-width="1.51"/><path d="M-235,-225L42,-152L248,-209Z" fill="#9be1eb" stroke="#9be1eb" stroke-width="1.51"/><path d="M166,1249L29,1299L265,1254Z" fill="#439ba4" stroke="#439ba4" stroke-width="1.51"/><path d="M355,294L397,355L433,211Z" fill="#32c1d6" stroke="#32c1d6" stroke-width="1.51"/><path d="M301,903L272,961L469,1061Z" fill="#33a5b5" stroke="#33a5b5" stroke-width="1.51"/><path d="M405,603L337,650L479,743Z" fill="#2db2c6" stroke="#2db2c6" stroke-width="1.51"/><path d="M433,211L397,355L488,342Z" fill="#2abed5" stroke="#2abed5" stroke-width="1.51"/><path d="M272,961L392,1100L469,1061Z" fill="#2da1b0" stroke="#2da1b0" stroke-width="1.51"/><path d="M397,355L406,370L488,342Z" fill="#2bbdd3" stroke="#2bbdd3" stroke-width="1.51"/><path d="M409,-22L341,24L474,85Z" fill="#5fccde" stroke="#5fccde" stroke-width="1.51"/><path d="M309,138L433,211L474,85Z" fill="#4dc6db" stroke="#4dc6db" stroke-width="1.51"/><path d="M337,650L417,846L479,743Z" fill="#2cb0c3" stroke="#2cb0c3" stroke-width="1.51"/><path d="M341,24L309,138L474,85Z" fill="#5bcadd" stroke="#5bcadd" stroke-width="1.51"/><path d="M337,650L257,752L417,846Z" fill="#37b2c3" stroke="#37b2c3" stroke-width="1.51"/><path d="M376,-199L290,-58L409,-22Z" fill="#75d3e2" stroke="#75d3e2" stroke-width="1.51"/><path d="M309,138L355,294L433,211Z" fill="#45c4d9" stroke="#45c4d9" stroke-width="1.51"/><path d="M392,1100L277,1145L423,1201Z" fill="#2e9ba9" stroke="#2e9ba9" stroke-width="1.51"/><path d="M277,1145L265,1254L423,1201Z" fill="#329aa6" stroke="#329aa6" stroke-width="1.51"/><path d="M279,377L333,491L406,370Z" fill="#3abdd2" stroke="#3abdd2" stroke-width="1.51"/><path d="M257,752L301,903L417,846Z" fill="#38aebf" stroke="#38aebf" stroke-width="1.51"/><path d="M42,-152L156,-167L248,-209Z" fill="#8fdce8" stroke="#8fdce8" stroke-width="1.51"/><path d="M397,355L279,377L406,370Z" fill="#37bfd3" stroke="#37bfd3" stroke-width="1.51"/><path d="M290,-58L341,24L409,-22Z" fill="#6ccfe0" stroke="#6ccfe0" stroke-width="1.51"/><path d="M377,575L337,650L405,603Z" fill="#33b5c9" stroke="#33b5c9" stroke-width="1.51"/><path d="M272,961L277,1145L392,1100Z" fill="#36a1af" stroke="#36a1af" stroke-width="1.51"/><path d="M355,294L279,377L397,355Z" fill="#3ac0d5" stroke="#3ac0d5" stroke-width="1.51"/><path d="M248,-209L290,-58L376,-199Z" fill="#81d7e5" stroke="#81d7e5" stroke-width="1.51"/><path d="M333,491L337,650L377,575Z" fill="#37b7cb" stroke="#37b7cb" stroke-width="1.51"/><path d="M215,469L161,628L333,491Z" fill="#46bccf" stroke="#46bccf" stroke-width="1.51"/><path d="M333,491L161,628L337,650Z" fill="#40b9cc" stroke="#40b9cc" stroke-width="1.51"/><path d="M230,90L309,138L341,24Z" fill="#62cddf" stroke="#62cddf" stroke-width="1.51"/><path d="M149,266L279,377L355,294Z" fill="#45c4d8" stroke="#45c4d8" stroke-width="1.51"/><path d="M309,138L174,173L355,294Z" fill="#52c7dc" stroke="#52c7dc" stroke-width="1.51"/><path d="M174,173L149,266L355,294Z" fill="#50c7db" stroke="#50c7db" stroke-width="1.51"/><path d="M279,377L215,469L333,491Z" fill="#42bed2" stroke="#42bed2" stroke-width="1.51"/><path d="M290,-58L230,90L341,24Z" fill="#6cd0e0" stroke="#6cd0e0" stroke-width="1.51"/><path d="M217,744L257,752L337,650Z" fill="#40b5c6" stroke="#40b5c6" stroke-width="1.51"/><path d="M161,628L217,744L337,650Z" fill="#44b7c9" stroke="#44b7c9" stroke-width="1.51"/><path d="M272,961L180,969L277,1145Z" fill="#3ea6b4" stroke="#3ea6b4" stroke-width="1.51"/><path d="M148,513L161,628L215,469Z" fill="#4dbed0" stroke="#4dbed0" stroke-width="1.51"/><path d="M217,744L137,871L257,752Z" fill="#47b4c4" stroke="#47b4c4" stroke-width="1.51"/><path d="M180,969L149,1131L277,1145Z" fill="#42a4b0" stroke="#42a4b0" stroke-width="1.51"/><path d="M154,-63L230,90L290,-58Z" fill="#75d3e3" stroke="#75d3e3" stroke-width="1.51"/><path d="M248,-209L156,-167L290,-58Z" fill="#85d8e6" stroke="#85d8e6" stroke-width="1.51"/><path d="M156,-167L154,-63L290,-58Z" fill="#82d7e5" stroke="#82d7e5" stroke-width="1.51"/><path d="M257,752L137,871L301,903Z" fill="#43b0c0" stroke="#43b0c0" stroke-width="1.51"/><path d="M230,90L174,173L309,138Z" fill="#60ccde" stroke="#60ccde" stroke-width="1.51"/><path d="M180,969L272,961L301,903Z" fill="#3faab9" stroke="#3faab9" stroke-width="1.51"/><path d="M137,871L180,969L301,903Z" fill="#45adbc" stroke="#45adbc" stroke-width="1.51"/><path d="M166,1249L265,1254L277,1145Z" fill="#3c9ca7" stroke="#3c9ca7" stroke-width="1.51"/><path d="M149,1131L166,1249L277,1145Z" fill="#419faa" stroke="#419faa" stroke-width="1.51"/><path d="M81,406L215,469L279,377Z" fill="#4cc2d5" stroke="#4cc2d5" stroke-width="1.51"/><path d="M149,266L81,406L279,377Z" fill="#4fc5d8" stroke="#4fc5d8" stroke-width="1.51"/><path d="M89,305L81,406L149,266Z" fill="#56c8da" stroke="#56c8da" stroke-width="1.51"/><path d="M154,-63L96,66L230,90Z" fill="#76d3e2" stroke="#76d3e2" stroke-width="1.51"/><path d="M68,1070L149,1131L180,969Z" fill="#49a7b3" stroke="#49a7b3" stroke-width="1.51"/><path d="M161,628L98,741L217,744Z" fill="#4db9c9" stroke="#4db9c9" stroke-width="1.51"/><path d="M98,741L137,871L217,744Z" fill="#4cb6c5" stroke="#4cb6c5" stroke-width="1.51"/><path d="M96,66L174,173L230,90Z" fill="#6acfe0" stroke="#6acfe0" stroke-width="1.51"/><path d="M81,406L148,513L215,469Z" fill="#51c1d3" stroke="#51c1d3" stroke-width="1.51"/><path d="M81,-90L154,-63L156,-167Z" fill="#89dae7" stroke="#89dae7" stroke-width="1.51"/><path d="M149,1131L35,1150L166,1249Z" fill="#49a1ac" stroke="#49a1ac" stroke-width="1.51"/><path d="M80,200L149,266L174,173Z" fill="#5fcbde" stroke="#5fcbde" stroke-width="1.51"/><path d="M96,66L80,200L174,173Z" fill="#6acfe0" stroke="#6acfe0" stroke-width="1.51"/><path d="M137,871L43,856L180,969Z" fill="#4db0be" stroke="#4db0be" stroke-width="1.51"/><path d="M43,856L68,1070L180,969Z" fill="#4eadba" stroke="#4eadba" stroke-width="1.51"/><path d="M81,406L60,494L148,513Z" fill="#56c2d4" stroke="#56c2d4" stroke-width="1.51"/><path d="M148,513L60,494L161,628Z" fill="#52bfd0" stroke="#52bfd0" stroke-width="1.51"/><path d="M60,494L-1,577L161,628Z" fill="#57c0d0" stroke="#57c0d0" stroke-width="1.51"/><path d="M98,741L43,856L137,871Z" fill="#52b6c4" stroke="#52b6c4" stroke-width="1.51"/><path d="M81,-90L96,66L154,-63Z" fill="#81d7e6" stroke="#81d7e6" stroke-width="1.51"/><path d="M-1,577L8,638L161,628Z" fill="#58bfcf" stroke="#58bfcf" stroke-width="1.51"/><path d="M8,638L98,741L161,628Z" fill="#54bccc" stroke="#54bccc" stroke-width="1.51"/><path d="M35,1150L29,1299L166,1249Z" fill="#4b9fa9" stroke="#4b9fa9" stroke-width="1.51"/><path d="M-235,-225L-91,-132L42,-152Z" fill="#a1e3ee" stroke="#a1e3ee" stroke-width="1.51"/><path d="M42,-152L81,-90L156,-167Z" fill="#8fdce8" stroke="#8fdce8" stroke-width="1.51"/><path d="M80,200L89,305L149,266Z" fill="#5acadd" stroke="#5acadd" stroke-width="1.51"/><path d="M68,1070L35,1150L149,1131Z" fill="#4da5b0" stroke="#4da5b0" stroke-width="1.51"/><path d="M-1,143L80,200L96,66Z" fill="#70d1e1" stroke="#70d1e1" stroke-width="1.51"/><path d="M43,856L-103,975L68,1070Z" fill="#57b0bc" stroke="#57b0bc" stroke-width="1.51"/><path d="M-41,294L81,406L89,305Z" fill="#5cc9db" stroke="#5cc9db" stroke-width="1.51"/><path d="M80,200L-41,294L89,305Z" fill="#5fcbde" stroke="#5fcbde" stroke-width="1.51"/><path d="M-16,109L-1,143L96,66Z" fill="#77d3e3" stroke="#77d3e3" stroke-width="1.51"/><path d="M81,-90L-52,-86L96,66Z" fill="#88dae6" stroke="#88dae6" stroke-width="1.51"/><path d="M-52,-86L-16,109L96,66Z" fill="#81d8e5" stroke="#81d8e5" stroke-width="1.51"/><path d="M-74,748L43,856L98,741Z" fill="#59bac8" stroke="#59bac8" stroke-width="1.51"/><path d="M8,638L-74,748L98,741Z" fill="#5bbccc" stroke="#5bbccc" stroke-width="1.51"/><path d="M-101,899L-103,975L43,856Z" fill="#5db5c1" stroke="#5db5c1" stroke-width="1.51"/><path d="M-1,143L-41,294L80,200Z" fill="#6acfe0" stroke="#6acfe0" stroke-width="1.51"/><path d="M42,-152L-52,-86L81,-90Z" fill="#91dde9" stroke="#91dde9" stroke-width="1.51"/><path d="M-85,399L60,494L81,406Z" fill="#5ec6d7" stroke="#5ec6d7" stroke-width="1.51"/><path d="M-41,294L-85,399L81,406Z" fill="#62cadb" stroke="#62cadb" stroke-width="1.51"/><path d="M-81,1254L29,1299L35,1150Z" fill="#52a1aa" stroke="#52a1aa" stroke-width="1.51"/><path d="M-77,1102L35,1150L68,1070Z" fill="#54a8b3" stroke="#54a8b3" stroke-width="1.51"/><path d="M-103,975L-77,1102L68,1070Z" fill="#58acb7" stroke="#58acb7" stroke-width="1.51"/><path d="M-85,399L-1,577L60,494Z" fill="#60c5d5" stroke="#60c5d5" stroke-width="1.51"/><path d="M-81,1254L-169,1307L29,1299Z" fill="#57a0a8" stroke="#57a0a8" stroke-width="1.51"/><path d="M-74,748L-101,899L43,856Z" fill="#5eb8c6" stroke="#5eb8c6" stroke-width="1.51"/><path d="M-91,-132L-52,-86L42,-152Z" fill="#97e0ea" stroke="#97e0ea" stroke-width="1.51"/><path d="M-77,1102L-81,1254L35,1150Z" fill="#56a6af" stroke="#56a6af" stroke-width="1.51"/><path d="M-124,880L-101,899L-74,748Z" fill="#62bac6" stroke="#62bac6" stroke-width="1.51"/><path d="M-194,-71L-230,49L-52,-86Z" fill="#96dfea" stroke="#96dfea" stroke-width="1.51"/><path d="M-52,-86L-230,49L-16,109Z" fill="#8bdbe8" stroke="#8bdbe8" stroke-width="1.51"/><path d="M-85,399L-165,594L-1,577Z" fill="#66c6d5" stroke="#66c6d5" stroke-width="1.51"/><path d="M-165,594L-117,621L-1,577Z" fill="#66c3d2" stroke="#66c3d2" stroke-width="1.51"/><path d="M-189,155L-41,294L-1,143Z" fill="#74d2e2" stroke="#74d2e2" stroke-width="1.51"/><path d="M-1,577L-117,621L8,638Z" fill="#60c1d0" stroke="#60c1d0" stroke-width="1.51"/><path d="M-117,621L-74,748L8,638Z" fill="#62c0ce" stroke="#62c0ce" stroke-width="1.51"/><path d="M-16,109L-189,155L-1,143Z" fill="#7bd5e4" stroke="#7bd5e4" stroke-width="1.51"/><path d="M-103,975L-144,1041L-77,1102Z" fill="#5fafb9" stroke="#5fafb9" stroke-width="1.51"/><path d="M-230,49L-189,155L-16,109Z" fill="#85d8e6" stroke="#85d8e6" stroke-width="1.51"/><path d="M-205,1130L-81,1254L-77,1102Z" fill="#5da8b1" stroke="#5da8b1" stroke-width="1.51"/><path d="M-117,621L-156,720L-74,748Z" fill="#66c1ce" stroke="#66c1ce" stroke-width="1.51"/><path d="M-163,342L-85,399L-41,294Z" fill="#69cddd" stroke="#69cddd" stroke-width="1.51"/><path d="M-189,155L-163,342L-41,294Z" fill="#70d1e1" stroke="#70d1e1" stroke-width="1.51"/><path d="M-218,379L-165,594L-85,399Z" fill="#6dcad9" stroke="#6dcad9" stroke-width="1.51"/><path d="M-91,-132L-194,-71L-52,-86Z" fill="#9ae0eb" stroke="#9ae0eb" stroke-width="1.51"/><path d="M-205,1130L-169,1307L-81,1254Z" fill="#5ea5ad" stroke="#5ea5ad" stroke-width="1.51"/><path d="M-156,720L-124,880L-74,748Z" fill="#65bdca" stroke="#65bdca" stroke-width="1.51"/><path d="M-144,1041L-205,1130L-77,1102Z" fill="#60adb6" stroke="#60adb6" stroke-width="1.51"/><path d="M-163,342L-218,379L-85,399Z" fill="#6ecddd" stroke="#6ecddd" stroke-width="1.51"/><path d="M-124,880L-103,975L-101,899Z" fill="#62b6c1" stroke="#62b6c1" stroke-width="1.51"/><path d="M-235,-225L-194,-71L-91,-132Z" fill="#a3e4ed" stroke="#a3e4ed" stroke-width="1.51"/><path d="M-124,880L-144,1041L-103,975Z" fill="#62b3be" stroke="#62b3be" stroke-width="1.51"/><path d="M-218,379L-236,612L-165,594Z" fill="#70c9d7" stroke="#70c9d7" stroke-width="1.51"/><path d="M-165,594L-156,720L-117,621Z" fill="#6ac3d1" stroke="#6ac3d1" stroke-width="1.51"/><path d="M-165,594L-236,612L-156,720Z" fill="#6dc5d2" stroke="#6dc5d2" stroke-width="1.51"/><path d="M-156,720L-236,612L-124,880Z" fill="#6ac0cd" stroke="#6ac0cd" stroke-width="1.51"/><path d="M-236,612L-205,1130L-124,880Z" fill="#69bbc6" stroke="#69bbc6" stroke-width="1.51"/><path d="M-205,1130L-144,1041L-124,880Z" fill="#63b2bb" stroke="#63b2bb" stroke-width="1.51"/><path d="M-189,155L-218,379L-163,342Z" fill="#72d1e1" stroke="#72d1e1" stroke-width="1.51"/><path d="M-230,49L-218,379L-189,155Z" fill="#7fd6e5" stroke="#7fd6e5" stroke-width="1.51"/><path d="M-235,-225L-230,49L-194,-71Z" fill="#9fe3ed" stroke="#9fe3ed" stroke-width="1.51"/><path d="M-230,49L-236,612L-218,379Z" fill="#74d0e0" stroke="#74d0e0" stroke-width="1.51"/><path d="M-235,-225L-236,612L-230,49Z" fill="#87d9e7" stroke="#87d9e7" stroke-width="1.51"/></svg>